<svg width="960" height="250" viewBox="0 0 960 250" fill="none" xmlns="http://www.w3.org/2000/svg">
<g clip-path="url(#clip0_1351_600)">
<g clip-path="url(#clip1_1351_600)">
<g clip-path="url(#clip2_1351_600)">
<path d="M976 -121.326H0.518066V436H976V-121.326Z" fill="url(#paint0_linear_1351_600)"/>
<path d="M650.43 -293.965C629.937 -315.346 604.73 -316.616 575.63 -309.629C539.941 -301.075 527.112 -293.299 499.364 -305.787C462.117 -322.558 439.933 -353.457 395.278 -354.564C314.924 -356.551 278.682 -284.027 248.536 -252.114C217.652 -219.443 187.251 -239.093 152.494 -235.138C116.282 -231.04 103.658 -187.376 134.234 -156.959C167.823 -123.56 203.471 -111.881 191.616 -62.2645C188.408 -48.7924 173.243 -50.1652 166.265 -26.8374C155.64 8.71261 181.707 78.8087 228.893 68.5945C251.825 63.6359 278.077 46.8956 306.512 73.1944C348.185 111.675 372.398 158.514 412.749 147.112C449.637 136.682 470.817 112.74 522.46 127.759C538.711 132.482 549.491 138.445 590.826 156.445C678.342 194.567 738.275 113.263 706.972 24.7972C694.676 -9.90247 687.503 -19.6352 677.984 -38.7216C640.225 -114.924 663.095 -119.288 677.307 -182.704C687.185 -226.819 672.389 -271.047 650.43 -293.965Z" fill="url(#paint1_linear_1351_600)"/>
<g style="mix-blend-mode:overlay">
<path d="M137.031 22.7488C154.041 46.9986 178.807 52.0596 208.625 49.5701C245.185 46.4966 259.059 40.7594 284.593 57.3051C318.879 79.5162 336.093 113.417 380.092 121.264C459.227 135.392 506.024 69.1892 540.647 42.2245C576.121 14.6143 603.203 38.6285 638.154 39.9911C674.581 41.3946 693.661 0.158646 668.034 -34.5308C639.896 -72.6319 606.42 -89.5565 625.633 -136.827C630.848 -149.654 645.624 -145.996 656.055 -168.002C671.948 -201.544 656.783 -274.775 608.603 -271.815C585.179 -270.38 556.745 -257.81 532.573 -288.104C497.191 -332.454 480.315 -382.419 438.744 -377.235C400.657 -372.533 376.137 -352.063 327.383 -374.715C312.013 -381.886 302.279 -389.376 264.141 -413.431C183.397 -464.369 111.876 -393.105 129.397 -300.89C136.273 -264.735 141.919 -254.019 148.425 -233.713C174.216 -152.676 150.946 -151.815 127.307 -91.3084C110.871 -49.1811 118.802 -3.20173 137.031 22.7488Z" fill="#575757"/>
</g>
<g style="mix-blend-mode:overlay">
<path d="M591.942 140.392C581.573 140.192 571.468 137.082 562.78 131.417C550.874 123.672 541.539 112.566 532.532 101.758C530.104 98.8484 527.593 95.8466 525.073 92.9677C515.4 81.8929 500.327 66.8124 481.237 63.6672C462.148 60.522 443.899 69.3633 426.172 77.8974C424.215 78.8399 422.268 79.7825 420.331 80.6943C393.772 93.2649 373.545 95.0372 358.493 85.9704C347.221 79.2087 340.459 67.0377 333.901 55.2355C326.349 41.5995 319.207 28.7216 305.599 23.3225C287.934 16.3149 268.148 26.396 254.807 34.5919L251.364 36.7536C236.793 45.7794 221.741 55.1023 204.957 53.8729C179.555 52.0084 163.632 26.2935 157.966 15.3314C154.728 9.06147 151.818 2.45345 149.082 -3.94965C143.569 -16.6637 137.862 -29.8182 129.029 -40.7086C115.842 -56.9878 91.516 -67.4377 73.6971 -56.7522L73.4307 -57.1927C91.5468 -68.0217 116.159 -57.4796 129.48 -41.0364C138.353 -30.0845 144.071 -16.8993 149.604 -4.15453C152.381 2.23833 155.25 8.84631 158.478 15.0957C164.103 25.9861 179.904 51.5166 205.049 53.3607C221.659 54.5799 236.65 45.2979 251.159 36.3233C252.313 35.5925 253.471 34.8754 254.633 34.1719C268.066 25.9145 288.006 15.731 305.866 22.9024C319.637 28.363 327.158 41.9273 334.423 55.0409C340.909 66.7406 347.621 78.8502 358.8 85.5401C373.699 94.4635 393.762 92.7116 420.157 80.2435C422.094 79.3317 424.03 78.3891 425.987 77.4466C443.786 68.8716 462.189 60.0302 481.371 63.1651C500.552 66.3001 515.769 81.5139 525.503 92.6399C528.024 95.529 530.534 98.5308 532.963 101.43C541.959 112.177 551.263 123.293 563.108 131.007C576.982 140.033 598.613 144.51 613.317 133.056L613.635 133.456C607.395 138.151 599.749 140.596 591.942 140.392Z" fill="white"/>
</g>
<g style="mix-blend-mode:overlay">
<path d="M637.991 78.6555C598.828 31.2008 556.202 39.4378 491.668 51.9059C485.08 53.1865 478.266 54.4979 471.175 55.799C420.393 65.1731 385.482 63.3598 361.31 50.0823C339.167 37.9113 327.599 17.5033 314.176 -6.13183C305.866 -20.7924 297.269 -35.9652 285.106 -51.2097C245.954 -100.529 203.399 -126.705 158.693 -128.969C126.283 -130.598 98.8833 -118.97 81.5869 -109.012C62.856 -98.1624 51.6564 -86.7802 51.5437 -86.6675L51.1851 -87.0261C51.2875 -87.1388 62.5384 -98.5722 81.3307 -109.452C98.6783 -119.492 126.17 -131.12 158.714 -129.481C203.573 -127.207 246.251 -100.99 285.588 -51.5683C297.781 -36.252 306.378 -21.069 314.698 -6.37773C328.019 17.1857 339.577 37.5322 361.597 49.6315C385.657 62.8475 420.464 64.6506 471.124 55.297C478.174 53.9959 484.977 52.6743 491.617 51.4039C523.167 45.3081 550.413 40.0422 574.205 42.3473C599.822 44.8369 620.233 56.2703 638.431 78.3277L637.991 78.6555Z" fill="#292929"/>
<path d="M633.144 91.349C596.533 39.9398 548.599 48.3202 482.252 59.8253C477.231 60.7063 472.107 61.5908 466.882 62.4787C418.364 70.6747 385.164 68.7384 362.427 56.383C341.503 45.0213 330.662 25.9861 318.09 3.93897C309.595 -10.9675 299.963 -27.8204 285.833 -44.2943C245.216 -91.5134 202.313 -116.071 158.314 -117.29C127.984 -118.13 102.982 -107.383 87.2531 -98.2136C70.2436 -88.235 60.2941 -77.99 60.1916 -77.9183L59.8228 -78.2769C59.9252 -78.3794 69.9157 -88.6858 86.9662 -98.6542C102.705 -107.875 127.861 -118.632 158.314 -117.802C202.477 -116.583 245.513 -91.9642 286.223 -44.6222C300.384 -28.1585 310.026 -11.2441 318.53 3.6931C343.676 47.8079 361.843 79.6902 466.8 61.9664C472.025 61.0854 477.138 60.1941 482.17 59.3233C515.225 53.5758 543.772 48.607 568.774 51.5063C596.02 54.672 616.606 67.2426 633.564 91.0519L633.144 91.349Z" fill="#292929"/>
<path d="M628.297 104.053C594.483 48.6685 540.996 56.926 473.276 67.4988L462.547 69.1585C446.933 71.7034 431.15 73.0732 415.331 73.2564C355.706 73.2564 340.93 47.2854 321.81 13.6922C312.864 -2.03384 302.72 -19.8601 286.479 -37.3277C244.468 -82.4773 201.278 -105.457 158.048 -105.621H157.576C129.613 -105.621 107.029 -95.765 93.0222 -87.4666C77.7137 -78.4305 68.9733 -69.2511 68.8811 -69.1589L68.5122 -69.5174C68.6044 -69.6096 77.3961 -78.8301 92.766 -87.9071C106.865 -96.2363 129.541 -106.133 157.617 -106.133H158.089C201.473 -105.969 244.806 -82.9281 286.899 -37.6761C303.171 -20.1674 313.336 -2.31045 322.301 13.4361C345.582 54.3545 362.407 83.9215 462.517 68.6565L473.245 66.9968C507.612 61.6592 537.297 57.0489 563.487 60.5936C592.424 64.497 613.163 78.2252 628.769 103.797L628.297 104.053Z" fill="#292929"/>
<path d="M623.451 116.746C592.711 57.4075 533.454 65.5215 464.883 74.9161L458.213 75.8279C414.019 81.8212 384.109 79.5776 364.077 68.7794C345.53 58.7803 336.206 42.2449 325.406 23.0971C316.184 6.6539 305.63 -11.992 287.124 -30.3817C243.761 -73.472 200.294 -94.925 157.924 -94.0132C108.238 -92.9887 77.7954 -60.7478 77.4983 -60.4199L77.1191 -60.7682C77.4163 -61.0961 108.003 -93.4907 157.914 -94.5254C200.407 -95.3962 243.986 -73.9433 287.483 -30.7402C306.04 -12.2993 316.573 6.36704 325.857 22.8409C336.606 41.8761 345.899 58.391 364.272 68.3286C384.212 79.0756 414.029 81.2987 458.1 75.3259L464.771 74.4141C498.749 69.7526 530.851 65.3575 558.22 69.5784C588.848 74.3116 609.71 89.218 623.86 116.511L623.451 116.746Z" fill="#292929"/>
<path d="M618.604 129.44C606.073 100.651 585.272 84.6386 553.169 79.0449C524.755 74.0965 491.925 78.0204 457.168 82.1184L453.879 82.5076C411.765 87.4764 383.413 85.0484 364.651 74.8752C347.232 65.4293 338.737 50.0311 328.859 32.1946C319.412 15.1162 308.704 -4.22625 287.77 -23.4253C242.982 -64.4974 199.301 -84.3419 157.904 -82.4261C112.573 -80.3156 86.4029 -51.9575 86.1775 -51.6912L85.7983 -52.0395C86.0545 -52.3264 112.368 -80.8381 157.914 -82.9588C199.444 -84.8746 243.249 -64.9892 288.149 -23.8249C309.145 -4.56435 319.914 14.8191 329.341 31.918C339.178 49.693 347.662 65.0297 364.928 74.4039C383.587 84.5259 411.847 86.9437 453.848 81.9749L457.137 81.5856C491.976 77.4876 524.765 73.5535 553.292 78.5121C568.611 81.1758 581.173 86.1856 591.696 93.7976C603.48 102.332 612.446 113.908 619.106 129.204L618.604 129.44Z" fill="#292929"/>
<path d="M613.767 142.133C603.019 112.177 581.603 94.4532 548.373 87.9784C518.945 82.2412 484.014 85.7347 450.231 89.1156L449.544 89.1873C409.449 93.1931 382.603 90.5601 365.071 80.9094C348.799 71.9553 341.073 57.5918 332.138 40.954C322.67 23.3429 311.942 3.38573 288.416 -16.4793C224.118 -70.7776 174.883 -75.06 144.901 -69.0974C112.45 -62.6226 94.9688 -43.1571 94.7844 -42.9215L94.395 -43.2596C94.5692 -43.4645 112.173 -63.1041 144.798 -69.5892C163.949 -73.4003 184.463 -72.007 205.756 -65.4297C232.397 -57.2337 260.278 -40.8418 288.754 -16.8583C312.321 3.06815 323.111 23.097 332.599 40.7184C341.483 57.2435 349.178 71.5864 365.296 80.4586C382.716 90.0581 409.48 92.6706 449.473 88.6546L450.159 88.5829C483.973 85.2021 518.945 81.6982 548.455 87.4559C581.87 93.9717 603.388 111.798 614.229 141.949L613.767 142.133Z" fill="#292929"/>
<path d="M608.921 154.837C599.843 123.528 578.724 104.637 544.367 97.0248C513.935 90.3041 477.426 93.2546 445.22 95.8671C407.082 98.9406 381.691 96.0924 365.296 86.8822C350.111 78.3379 343.194 64.9273 335.192 49.4062C325.878 31.334 315.313 10.8543 289.082 -9.51266C224.723 -59.4159 177.68 -63.4524 149.553 -58.0635C119.079 -52.2239 103.617 -34.3567 103.443 -34.1825L103.054 -34.5104C103.207 -34.6948 118.762 -52.6747 149.399 -58.5553C167.372 -62.0181 186.953 -60.6863 207.6 -54.6212C233.381 -47.04 260.883 -32.0003 289.379 -9.9122C315.744 10.5265 326.328 31.0677 335.663 49.1705C343.635 64.6199 350.511 77.9691 365.563 86.4417C381.845 95.6007 407.134 98.4283 445.169 95.3548C477.415 92.7424 513.965 89.7816 544.47 96.5228C579.032 104.166 600.273 123.16 609.413 154.694L608.921 154.837Z" fill="#292929"/>
</g>
<g style="mix-blend-mode:overlay">
<path d="M302.926 24.183C301.643 24.183 300.389 23.8027 299.322 23.0901C298.255 22.3775 297.424 21.3647 296.933 20.1797C296.442 18.9947 296.314 17.6908 296.564 16.4328C296.814 15.1748 297.432 14.0193 298.339 13.1123C299.246 12.2054 300.402 11.5877 301.66 11.3375C302.918 11.0873 304.223 11.2157 305.408 11.7066C306.593 12.1974 307.606 13.0286 308.319 14.0951C309.031 15.1615 309.412 16.4153 309.412 17.698C309.409 19.4171 308.725 21.065 307.509 22.2806C306.293 23.4962 304.645 24.1803 302.926 24.183V24.183ZM302.926 11.9915C301.794 11.9915 300.688 12.327 299.748 12.9557C298.807 13.5843 298.075 14.4777 297.642 15.5229C297.21 16.5681 297.097 17.718 297.319 18.8273C297.54 19.9365 298.086 20.9551 298.886 21.7541C299.687 22.5532 300.707 23.0969 301.816 23.3163C302.926 23.5357 304.076 23.4211 305.121 22.9868C306.165 22.5525 307.058 21.8182 307.685 20.8768C308.312 19.9353 308.645 18.829 308.643 17.698C308.641 16.1836 308.037 14.7322 306.965 13.6623C305.893 12.5924 304.44 11.9915 302.926 11.9915V11.9915Z" fill="white"/>
</g>
<g style="mix-blend-mode:overlay">
<path d="M481.083 159.222C479.024 159.222 477.011 158.611 475.299 157.467C473.586 156.323 472.252 154.697 471.464 152.794C470.677 150.891 470.471 148.798 470.874 146.779C471.276 144.759 472.269 142.905 473.726 141.449C475.183 139.994 477.039 139.003 479.059 138.603C481.079 138.202 483.172 138.41 485.075 139.199C486.977 139.989 488.602 141.325 489.745 143.038C490.887 144.751 491.496 146.764 491.494 148.823C491.491 151.582 490.393 154.227 488.441 156.177C486.489 158.127 483.843 159.222 481.083 159.222V159.222ZM481.083 139.203C479.176 139.203 477.312 139.769 475.727 140.828C474.141 141.887 472.905 143.393 472.175 145.155C471.446 146.916 471.255 148.854 471.627 150.725C471.999 152.595 472.917 154.312 474.265 155.661C475.614 157.009 477.332 157.927 479.202 158.299C481.073 158.671 483.011 158.48 484.773 157.75C486.535 157.021 488.041 155.785 489.101 154.2C490.16 152.614 490.726 150.75 490.726 148.844C490.723 146.288 489.706 143.837 487.898 142.03C486.091 140.223 483.64 139.206 481.083 139.203Z" fill="white"/>
</g>
<g style="mix-blend-mode:overlay">
<path d="M522.511 230.67C521.4 230.672 520.314 230.345 519.389 229.729C518.464 229.114 517.743 228.237 517.316 227.212C516.89 226.186 516.777 225.057 516.992 223.967C517.208 222.877 517.742 221.876 518.527 221.09C519.312 220.304 520.312 219.768 521.402 219.551C522.491 219.333 523.621 219.444 524.647 219.868C525.674 220.293 526.552 221.013 527.169 221.936C527.787 222.859 528.116 223.945 528.116 225.056C528.113 226.543 527.522 227.967 526.472 229.019C525.422 230.071 523.998 230.665 522.511 230.67ZM522.511 220.21C521.552 220.208 520.614 220.491 519.816 221.022C519.017 221.553 518.395 222.309 518.026 223.195C517.658 224.08 517.56 225.055 517.746 225.995C517.932 226.936 518.393 227.8 519.07 228.479C519.748 229.158 520.611 229.62 521.552 229.808C522.492 229.996 523.467 229.901 524.353 229.534C525.24 229.168 525.997 228.547 526.53 227.749C527.063 226.952 527.348 226.015 527.348 225.056C527.348 223.773 526.838 222.542 525.932 221.633C525.025 220.725 523.795 220.213 522.511 220.21V220.21Z" fill="white"/>
</g>
<g style="mix-blend-mode:overlay">
<path d="M95.1024 45.093C92.8731 45.093 90.6939 44.4321 88.8404 43.1938C86.9868 41.9555 85.5421 40.1954 84.689 38.1362C83.8359 36.077 83.6127 33.8111 84.0476 31.625C84.4825 29.4389 85.556 27.4309 87.1324 25.8548C88.7087 24.2788 90.717 23.2055 92.9035 22.7706C95.0899 22.3358 97.3562 22.559 99.4157 23.4119C101.475 24.2649 103.236 25.7093 104.474 27.5626C105.713 29.4158 106.374 31.5947 106.374 33.8236C106.374 36.8124 105.186 39.6788 103.072 41.7923C100.959 43.9057 98.0917 45.093 95.1024 45.093ZM95.1024 23.3122C93.0227 23.3102 90.9891 23.9249 89.2588 25.0787C87.5286 26.2325 86.1795 27.8734 85.3823 29.7939C84.585 31.7144 84.3753 33.8283 84.7798 35.8679C85.1843 37.9076 86.1848 39.7815 87.6547 41.2525C89.1245 42.7236 90.9978 43.7258 93.0374 44.1322C95.077 44.5386 97.1913 44.331 99.1129 43.5357C101.035 42.7405 102.677 41.3932 103.833 39.6644C104.988 37.9356 105.605 35.903 105.605 33.8236C105.603 31.0384 104.495 28.3679 102.527 26.3975C100.558 24.4272 97.888 23.3176 95.1024 23.3122V23.3122Z" fill="white"/>
</g>
<g style="mix-blend-mode:overlay">
<path d="M394.704 47.2343H383.084V48.0026H394.704V47.2343Z" fill="white"/>
</g>
<g style="mix-blend-mode:overlay">
<path d="M555.044 76.2684H543.424V77.0368H555.044V76.2684Z" fill="white"/>
</g>
<path style="mix-blend-mode:color-burn" d="M464.412 91.4579C467.759 77.2833 458.978 63.0804 444.801 59.7349C430.624 56.3894 416.419 65.1681 413.073 79.3427C409.727 93.5173 418.507 107.72 432.684 111.066C446.861 114.411 461.066 105.632 464.412 91.4579Z" fill="url(#paint2_radial_1351_600)"/>
<path d="M438.857 97.0862C449.502 97.0862 458.131 88.4584 458.131 77.8154C458.131 67.1725 449.502 58.5446 438.857 58.5446C428.213 58.5446 419.583 67.1725 419.583 77.8154C419.583 88.4584 428.213 97.0862 438.857 97.0862Z" fill="url(#paint3_linear_1351_600)"/>
<path style="mix-blend-mode:color-burn" d="M253.627 53.2178C259.409 50.823 262.155 44.1948 259.76 38.4132C257.365 32.6317 250.736 29.8862 244.953 32.281C239.171 34.6758 236.425 41.304 238.82 47.0855C241.215 52.8671 247.844 55.6126 253.627 53.2178Z" fill="url(#paint4_radial_1351_600)"/>
<path d="M255.182 45.3288C258.415 42.0961 258.415 36.8548 255.182 33.6221C251.949 30.3894 246.707 30.3893 243.473 33.6221C240.24 36.8548 240.24 42.0961 243.474 45.3289C246.707 48.5616 251.949 48.5616 255.182 45.3288Z" fill="url(#paint5_linear_1351_600)"/>
</g>
</g>
<path d="M854.091 201.136H858.615C858.84 201.136 859.007 201.146 859.114 201.165C859.232 201.175 859.364 201.219 859.511 201.297C859.775 201.434 859.908 201.816 859.908 202.443C859.908 203.128 859.726 203.53 859.364 203.647C859.198 203.706 858.943 203.736 858.6 203.736H852.784C852.098 203.736 851.697 203.549 851.579 203.177C851.521 203.021 851.491 202.771 851.491 202.428V194.262C851.491 193.762 851.584 193.425 851.77 193.248C851.956 193.062 852.309 192.969 852.828 192.969H858.615C858.84 192.969 859.007 192.979 859.114 192.999C859.232 193.008 859.364 193.052 859.511 193.131C859.775 193.268 859.908 193.65 859.908 194.276C859.908 194.962 859.726 195.363 859.364 195.481C859.198 195.54 858.943 195.569 858.6 195.569H854.091V197.052H856.999C857.225 197.052 857.391 197.062 857.499 197.082C857.616 197.092 857.748 197.136 857.895 197.214C858.16 197.351 858.292 197.733 858.292 198.36C858.292 199.045 858.106 199.447 857.734 199.564C857.567 199.623 857.313 199.652 856.97 199.652H854.091V201.136ZM864.979 198.595L864.025 198.536V200.563C864.025 200.827 864.064 201.018 864.142 201.136C864.23 201.253 864.387 201.312 864.612 201.312C864.847 201.312 865.023 201.322 865.141 201.341C865.268 201.351 865.4 201.395 865.538 201.474C865.763 201.601 865.875 201.929 865.875 202.458C865.875 203.075 865.738 203.452 865.464 203.589C865.317 203.657 865.185 203.701 865.068 203.721C864.96 203.731 864.798 203.736 864.583 203.736C863.564 203.736 862.791 203.505 862.262 203.045C861.733 202.585 861.469 201.807 861.469 200.71V198.536C861.283 198.565 861.082 198.58 860.867 198.58C860.651 198.58 860.47 198.497 860.323 198.33C860.186 198.164 860.118 197.88 860.118 197.478C860.118 197.077 860.142 196.788 860.191 196.612C860.24 196.426 860.309 196.294 860.397 196.215C860.553 196.088 860.749 196.024 860.984 196.024L861.469 196.083V194.57C861.469 194.345 861.474 194.179 861.484 194.071C861.503 193.963 861.552 193.846 861.631 193.718C861.758 193.474 862.135 193.351 862.761 193.351C863.427 193.351 863.824 193.532 863.951 193.895C864 194.051 864.025 194.301 864.025 194.644V196.083C864.456 196.044 864.779 196.024 864.994 196.024C865.219 196.024 865.386 196.034 865.493 196.054C865.611 196.064 865.743 196.108 865.89 196.186C866.145 196.313 866.272 196.69 866.272 197.317C866.272 197.934 866.14 198.311 865.875 198.448C865.728 198.516 865.596 198.56 865.479 198.58C865.371 198.59 865.205 198.595 864.979 198.595ZM871.372 196.024C872.351 196.024 873.164 196.396 873.81 197.141C874.466 197.885 874.794 198.795 874.794 199.873V202.458C874.794 202.683 874.784 202.854 874.765 202.972C874.755 203.079 874.711 203.207 874.633 203.354C874.505 203.608 874.128 203.736 873.502 203.736C872.904 203.736 872.532 203.608 872.385 203.354C872.307 203.207 872.258 203.075 872.238 202.957C872.229 202.84 872.224 202.663 872.224 202.428V199.858C872.224 199.456 872.111 199.143 871.886 198.918C871.661 198.693 871.372 198.58 871.019 198.58C870.677 198.58 870.373 198.688 870.109 198.903C869.844 199.109 869.693 199.344 869.653 199.608V202.458C869.653 202.683 869.644 202.854 869.624 202.972C869.614 203.079 869.57 203.207 869.492 203.354C869.365 203.608 868.988 203.736 868.361 203.736C867.744 203.736 867.367 203.603 867.23 203.339C867.161 203.192 867.117 203.065 867.098 202.957C867.088 202.849 867.083 202.678 867.083 202.443V193.66C867.083 193.434 867.088 193.268 867.098 193.16C867.117 193.043 867.161 192.915 867.23 192.778C867.367 192.514 867.749 192.382 868.376 192.382C868.992 192.382 869.365 192.514 869.492 192.778C869.57 192.925 869.614 193.057 869.624 193.175C869.644 193.283 869.653 193.449 869.653 193.674V196.92C870.143 196.323 870.716 196.024 871.372 196.024ZM874.644 192.955H882.811C883.124 192.955 883.354 192.994 883.501 193.072C883.648 193.141 883.746 193.253 883.795 193.41C883.844 193.567 883.868 193.772 883.868 194.027C883.868 194.281 883.844 194.487 883.795 194.644C883.746 194.791 883.663 194.893 883.545 194.952C883.369 195.04 883.119 195.084 882.796 195.084H879.991V202.472C879.991 202.698 879.981 202.864 879.961 202.972C879.952 203.079 879.908 203.207 879.829 203.354C879.761 203.491 879.633 203.589 879.447 203.647C879.261 203.706 879.016 203.736 878.713 203.736C878.409 203.736 878.165 203.706 877.978 203.647C877.802 203.589 877.675 203.491 877.597 203.354C877.528 203.207 877.484 203.079 877.464 202.972C877.455 202.854 877.45 202.683 877.45 202.458V195.084H874.63C874.316 195.084 874.086 195.05 873.939 194.981C873.792 194.903 873.694 194.786 873.646 194.629C873.597 194.472 873.572 194.267 873.572 194.012C873.572 193.757 873.597 193.557 873.646 193.41C873.694 193.253 873.778 193.145 873.895 193.087C874.071 192.999 874.321 192.955 874.644 192.955ZM892.675 196.054C893.301 196.328 893.615 196.666 893.615 197.067C893.615 197.234 893.536 197.503 893.38 197.875C893.223 198.237 893.091 198.556 892.983 198.83L891.368 202.766C891.221 203.197 890.976 203.501 890.633 203.677C890.486 203.745 890.3 203.78 890.075 203.78C889.85 203.78 889.629 203.696 889.414 203.53C889.208 203.354 889.071 203.177 889.003 203.001L888.885 202.751C888.807 202.556 888.518 201.792 888.019 200.46C887.921 200.695 887.774 201.082 887.578 201.62C887.392 202.149 887.27 202.482 887.211 202.619C887.162 202.747 887.128 202.835 887.108 202.884C887.098 202.923 887.059 203.001 886.991 203.119C886.922 203.236 886.844 203.339 886.755 203.427C886.52 203.662 886.251 203.78 885.948 203.78C885.644 203.78 885.39 203.696 885.184 203.53C884.978 203.354 884.841 203.177 884.773 203.001L882.555 197.596C882.457 197.302 882.408 197.111 882.408 197.023C882.408 196.631 882.687 196.323 883.245 196.098C883.558 195.97 883.813 195.907 884.009 195.907C884.205 195.907 884.361 195.951 884.479 196.039C884.606 196.117 884.694 196.201 884.743 196.289C884.792 196.367 884.831 196.45 884.861 196.538C885.027 196.93 885.375 197.851 885.904 199.3L886.77 196.92C886.829 196.724 886.937 196.553 887.093 196.406C887.377 196.122 887.666 195.98 887.96 195.98C888.254 195.98 888.503 196.059 888.709 196.215C888.924 196.372 889.071 196.529 889.15 196.685L889.267 196.935C889.757 198.306 890.046 199.089 890.134 199.285L891.03 196.847C891.265 196.22 891.617 195.907 892.087 195.907C892.273 195.907 892.469 195.956 892.675 196.054ZM901.597 198.947C901.597 199.545 901.445 199.99 901.141 200.284C900.848 200.568 900.52 200.71 900.157 200.71H896.676C896.676 200.984 896.838 201.214 897.161 201.4C897.484 201.586 897.807 201.679 898.13 201.679C898.698 201.679 899.144 201.62 899.467 201.503L899.629 201.444C899.864 201.336 900.059 201.283 900.216 201.283C900.529 201.283 900.799 201.503 901.024 201.944C901.151 202.208 901.215 202.433 901.215 202.619C901.215 203.491 900.172 203.926 898.086 203.926C897.362 203.926 896.715 203.804 896.148 203.559C895.589 203.305 895.154 202.972 894.84 202.56C894.223 201.767 893.915 200.881 893.915 199.902C893.915 198.668 894.312 197.684 895.105 196.95C895.908 196.205 896.906 195.833 898.101 195.833C899.462 195.833 900.461 196.313 901.097 197.273C901.43 197.782 901.597 198.34 901.597 198.947ZM898.498 199.373C898.87 199.373 899.056 199.217 899.056 198.903C899.056 198.678 898.968 198.497 898.791 198.36C898.625 198.223 898.38 198.154 898.057 198.154C897.744 198.154 897.43 198.286 897.117 198.551C896.804 198.805 896.647 199.079 896.647 199.373H898.498ZM910.017 198.947C910.017 199.545 909.865 199.99 909.561 200.284C909.267 200.568 908.939 200.71 908.577 200.71H905.096C905.096 200.984 905.258 201.214 905.581 201.4C905.904 201.586 906.227 201.679 906.55 201.679C907.118 201.679 907.564 201.62 907.887 201.503L908.048 201.444C908.283 201.336 908.479 201.283 908.636 201.283C908.949 201.283 909.219 201.503 909.444 201.944C909.571 202.208 909.635 202.433 909.635 202.619C909.635 203.491 908.592 203.926 906.506 203.926C905.782 203.926 905.135 203.804 904.567 203.559C904.009 203.305 903.573 202.972 903.26 202.56C902.643 201.767 902.335 200.881 902.335 199.902C902.335 198.668 902.731 197.684 903.524 196.95C904.327 196.205 905.326 195.833 906.521 195.833C907.882 195.833 908.881 196.313 909.517 197.273C909.85 197.782 910.017 198.34 910.017 198.947ZM906.917 199.373C907.29 199.373 907.476 199.217 907.476 198.903C907.476 198.678 907.387 198.497 907.211 198.36C907.045 198.223 906.8 198.154 906.477 198.154C906.163 198.154 905.85 198.286 905.537 198.551C905.223 198.805 905.067 199.079 905.067 199.373H906.917ZM915.326 198.595L914.371 198.536V200.563C914.371 200.827 914.41 201.018 914.489 201.136C914.577 201.253 914.734 201.312 914.959 201.312C915.194 201.312 915.37 201.322 915.488 201.341C915.615 201.351 915.747 201.395 915.884 201.474C916.109 201.601 916.222 201.929 916.222 202.458C916.222 203.075 916.085 203.452 915.811 203.589C915.664 203.657 915.532 203.701 915.414 203.721C915.306 203.731 915.145 203.736 914.929 203.736C913.911 203.736 913.137 203.505 912.609 203.045C912.08 202.585 911.816 201.807 911.816 200.71V198.536C911.629 198.565 911.429 198.58 911.213 198.58C910.998 198.58 910.817 198.497 910.67 198.33C910.533 198.164 910.464 197.88 910.464 197.478C910.464 197.077 910.489 196.788 910.538 196.612C910.587 196.426 910.655 196.294 910.743 196.215C910.9 196.088 911.096 196.024 911.331 196.024L911.816 196.083V194.57C911.816 194.345 911.82 194.179 911.83 194.071C911.85 193.963 911.899 193.846 911.977 193.718C912.104 193.474 912.481 193.351 913.108 193.351C913.774 193.351 914.17 193.532 914.298 193.895C914.347 194.051 914.371 194.301 914.371 194.644V196.083C914.802 196.044 915.125 196.024 915.341 196.024C915.566 196.024 915.732 196.034 915.84 196.054C915.958 196.064 916.09 196.108 916.237 196.186C916.491 196.313 916.618 196.69 916.618 197.317C916.618 197.934 916.486 198.311 916.222 198.448C916.075 198.516 915.943 198.56 915.825 198.58C915.718 198.59 915.551 198.595 915.326 198.595Z" fill="white"/>
<path fill-rule="evenodd" clip-rule="evenodd" d="M821.155 199.283L816.958 203.479C815.877 204.561 815.877 206.315 816.958 207.396L824.232 214.67C825.314 215.751 827.067 215.751 828.149 214.67L832.345 210.473L821.155 199.283Z" fill="white"/>
<path fill-rule="evenodd" clip-rule="evenodd" d="M821.155 199.188L816.959 194.992C815.877 193.911 815.877 192.157 816.959 191.076L824.232 183.802C825.314 182.72 827.067 182.72 828.149 183.802L832.345 187.998L821.155 199.188Z" fill="white"/>
<circle cx="834.98" cy="199.054" r="6.13236" fill="white"/>
</g>
<defs>
<linearGradient id="paint0_linear_1351_600" x1="-42.7593" y1="713.773" x2="413.625" y2="235.365" gradientUnits="userSpaceOnUse">
<stop stop-color="#436B95"/>
<stop offset="0.65" stop-color="#14365E"/>
<stop offset="1" stop-color="#001F46"/>
</linearGradient>
<linearGradient id="paint1_linear_1351_600" x1="116.989" y1="-94.2595" x2="715.374" y2="-94.2595" gradientUnits="userSpaceOnUse">
<stop stop-color="#FF8A00"/>
<stop offset="1" stop-color="#FFBC00"/>
</linearGradient>
<radialGradient id="paint2_radial_1351_600" cx="0" cy="0" r="1" gradientUnits="userSpaceOnUse" gradientTransform="translate(438.718 85.4245) scale(26.3749 26.3705)">
<stop offset="0.2" stop-color="#4D4D4D"/>
<stop offset="0.58" stop-color="#A9A9A9"/>
<stop offset="0.87" stop-color="#E7E7E7"/>
<stop offset="1" stop-color="white"/>
</radialGradient>
<linearGradient id="paint3_linear_1351_600" x1="438.857" y1="92.7321" x2="438.857" y2="60.5731" gradientUnits="userSpaceOnUse">
<stop stop-color="#FF8A00"/>
<stop offset="1" stop-color="#FFBC00"/>
</linearGradient>
<radialGradient id="paint4_radial_1351_600" cx="0" cy="0" r="1" gradientUnits="userSpaceOnUse" gradientTransform="translate(249.289 42.7474) scale(11.3328 11.3309)">
<stop offset="0.2" stop-color="#4D4D4D"/>
<stop offset="0.58" stop-color="#A9A9A9"/>
<stop offset="0.87" stop-color="#E7E7E7"/>
<stop offset="1" stop-color="white"/>
</radialGradient>
<linearGradient id="paint5_linear_1351_600" x1="249.332" y1="45.8783" x2="249.332" y2="32.0783" gradientUnits="userSpaceOnUse">
<stop stop-color="#FF8A00"/>
<stop offset="1" stop-color="#FFBC00"/>
</linearGradient>
<clipPath id="clip0_1351_600">
<rect width="960" height="250" fill="white"/>
</clipPath>
<clipPath id="clip1_1351_600">
<rect width="997" height="849" fill="white" transform="translate(-21 -413)"/>
</clipPath>
<clipPath id="clip2_1351_600">
<rect width="997" height="849" fill="white" transform="translate(-21 -413)"/>
</clipPath>
</defs>
</svg>
